<?xml version="1.0" standalone="no"?>
<!DOCTYPE svg PUBLIC "-//W3C//DTD SVG 20010904//EN"
 "http://www.w3.org/TR/2001/REC-SVG-20010904/DTD/svg10.dtd">
<svg version="1.0" xmlns="http://www.w3.org/2000/svg"
 width="48.000000pt" height="48.000000pt" viewBox="0 0 48.000000 48.000000"
 preserveAspectRatio="xMidYMid meet">

<g transform="translate(0.000000,48.000000) scale(0.100000,-0.100000)"
fill="#000000" stroke="none">
<path d="M323 395 c-22 -9 -33 -21 -33 -35 0 -11 -4 -20 -9 -20 -21 0 3 -37
31 -48 24 -9 38 -8 63 2 38 16 51 46 34 78 -22 41 -36 45 -86 23z"/>
<path d="M86 84 c-3 -9 -6 -18 -6 -20 0 -2 40 -4 90 -4 50 0 90 4 90 8 0 22
-29 32 -96 32 -56 0 -73 -3 -78 -16z"/>
</g>
</svg>
